<?xml version="1.0" encoding="UTF-8" standalone="no"?>
<svg
   id="Kilo_Code_Branding"
   width="13px" 
   height="13px"
   version="1.1"
   viewBox="0 0 39.9997627 39.9999944"
   sodipodi:docname="kilo-dark.svg"
   inkscape:version="1.4.2 (ebf0e940d0, 2025-05-08)"
   xmlns:inkscape="http://www.inkscape.org/namespaces/inkscape"
   xmlns:sodipodi="http://sodipodi.sourceforge.net/DTD/sodipodi-0.dtd"
   xmlns="http://www.w3.org/2000/svg"
   xmlns:svg="http://www.w3.org/2000/svg">
  <defs
     id="defs1" />
  <sodipodi:namedview
     id="namedview1"
     pagecolor="#ffffff"
     bordercolor="#000000"
     borderopacity="0.25"
     inkscape:showpageshadow="2"
     inkscape:pageopacity="0.0"
     inkscape:pagecheckerboard="0"
     inkscape:deskcolor="#d1d1d1"
     inkscape:zoom="20.000002"
     inkscape:cx="19.999998"
     inkscape:cy="21.349998"
     inkscape:window-width="1920"
     inkscape:window-height="1011"
     inkscape:window-x="0"
     inkscape:window-y="0"
     inkscape:window-maximized="1"
     inkscape:current-layer="Kilo_Code_Branding" />
  <g
     transform="matrix(0.99875,0,0,0.99875,0,1.1129999e-6)"
     transform-origin="center"
     id="g1">
    <path
       fill="#c5c5c5"
       d="m 27.999832,34.666692 h 6.666628 v 5.333302 H 26.285557 L 22.66653,36.380968 v -8.380904 h 5.333302 z m 11.999931,-8.380904 -3.619027,-3.619026 h -8.380904 v 5.333302 h 6.666628 v 6.666628 h 5.333303 z m -22.66653,-3.61903 H 11.99993 v 5.333302 h 5.333303 z M 0,36.380964 3.6190266,39.99999 H 17.333233 V 34.666688 H 5.3333023 V 22.666758 H 0 Z M 33.960096,11.999925 V 3.619021 L 30.341069,-5.6e-6 H 22.66653 v 5.3333023 h 5.960264 V 11.999925 H 22.66653 v 5.333302 H 39.999763 V 11.999925 Z M 5.3333023,0 H 0 V 17.333233 H 5.3333023 V 11.333267 H 11.99993 v 5.999966 h 5.333302 V 11.333267 L 11.99993,5.9999652 H 5.3333023 Z M 17.333233,0 H 11.99993 v 5.9999651 h 5.333303 z"
       id="path1" />
  </g>
</svg>
